<mxfile host="app.diagrams.net" agent="Mozilla/5.0 (Windows NT 10.0; Win64; x64) AppleWebKit/537.36 (KHTML, like Gecko) Chrome/134.0.0.0 Safari/537.36" version="26.1.0">
  <diagram name="Page-1" id="ti2uXpXU4Vzbc-kwztIU">
    <mxGraphModel dx="1050" dy="569" grid="1" gridSize="10" guides="1" tooltips="1" connect="1" arrows="1" fold="1" page="1" pageScale="1" pageWidth="850" pageHeight="1100" math="0" shadow="0">
      <root>
        <mxCell id="0" />
        <mxCell id="1" parent="0" />
        <mxCell id="OavMHwxAjZZI_yzGjffu-3" value="" style="edgeStyle=orthogonalEdgeStyle;rounded=0;orthogonalLoop=1;jettySize=auto;html=1;" edge="1" parent="1" source="OavMHwxAjZZI_yzGjffu-1" target="OavMHwxAjZZI_yzGjffu-2">
          <mxGeometry relative="1" as="geometry" />
        </mxCell>
        <mxCell id="OavMHwxAjZZI_yzGjffu-1" value="Inicio" style="ellipse;whiteSpace=wrap;html=1;" vertex="1" parent="1">
          <mxGeometry x="365" y="10" width="120" height="80" as="geometry" />
        </mxCell>
        <mxCell id="OavMHwxAjZZI_yzGjffu-5" value="" style="edgeStyle=orthogonalEdgeStyle;rounded=0;orthogonalLoop=1;jettySize=auto;html=1;" edge="1" parent="1" source="OavMHwxAjZZI_yzGjffu-2" target="OavMHwxAjZZI_yzGjffu-4">
          <mxGeometry relative="1" as="geometry" />
        </mxCell>
        <mxCell id="OavMHwxAjZZI_yzGjffu-2" value="Nombres y notas de los estudiantes" style="shape=hexagon;perimeter=hexagonPerimeter2;whiteSpace=wrap;html=1;fixedSize=1;" vertex="1" parent="1">
          <mxGeometry x="365" y="110" width="120" height="80" as="geometry" />
        </mxCell>
        <mxCell id="OavMHwxAjZZI_yzGjffu-8" style="edgeStyle=orthogonalEdgeStyle;rounded=0;orthogonalLoop=1;jettySize=auto;html=1;entryX=0.5;entryY=0;entryDx=0;entryDy=0;" edge="1" parent="1" source="OavMHwxAjZZI_yzGjffu-4" target="OavMHwxAjZZI_yzGjffu-7">
          <mxGeometry relative="1" as="geometry" />
        </mxCell>
        <mxCell id="OavMHwxAjZZI_yzGjffu-4" value="Es la nota menora 50?" style="rhombus;whiteSpace=wrap;html=1;" vertex="1" parent="1">
          <mxGeometry x="363" y="220" width="125" height="120" as="geometry" />
        </mxCell>
        <mxCell id="OavMHwxAjZZI_yzGjffu-11" style="edgeStyle=orthogonalEdgeStyle;rounded=0;orthogonalLoop=1;jettySize=auto;html=1;entryX=0.5;entryY=0;entryDx=0;entryDy=0;" edge="1" parent="1" source="OavMHwxAjZZI_yzGjffu-7" target="OavMHwxAjZZI_yzGjffu-17">
          <mxGeometry relative="1" as="geometry">
            <mxPoint x="510" y="460" as="targetPoint" />
          </mxGeometry>
        </mxCell>
        <mxCell id="OavMHwxAjZZI_yzGjffu-7" value="Enviar mensaje: &quot;Tu nota es menor a 50, estas en riesgo de fallar el curso&quot;" style="rounded=0;whiteSpace=wrap;html=1;" vertex="1" parent="1">
          <mxGeometry x="560" y="360" width="120" height="60" as="geometry" />
        </mxCell>
        <mxCell id="OavMHwxAjZZI_yzGjffu-9" value="SI" style="text;html=1;align=center;verticalAlign=middle;resizable=0;points=[];autosize=1;strokeColor=none;fillColor=none;" vertex="1" parent="1">
          <mxGeometry x="590" y="258" width="30" height="30" as="geometry" />
        </mxCell>
        <mxCell id="OavMHwxAjZZI_yzGjffu-10" value="Ver la nota del siguiente estudiante" style="rounded=0;whiteSpace=wrap;html=1;" vertex="1" parent="1">
          <mxGeometry x="560" y="560" width="120" height="60" as="geometry" />
        </mxCell>
        <mxCell id="OavMHwxAjZZI_yzGjffu-13" value="" style="endArrow=classic;html=1;rounded=0;" edge="1" parent="1" target="OavMHwxAjZZI_yzGjffu-17">
          <mxGeometry width="50" height="50" relative="1" as="geometry">
            <mxPoint x="240" y="280" as="sourcePoint" />
            <mxPoint x="220" y="470" as="targetPoint" />
          </mxGeometry>
        </mxCell>
        <mxCell id="OavMHwxAjZZI_yzGjffu-14" value="" style="endArrow=none;html=1;rounded=0;exitX=0;exitY=0.5;exitDx=0;exitDy=0;" edge="1" parent="1" source="OavMHwxAjZZI_yzGjffu-4">
          <mxGeometry width="50" height="50" relative="1" as="geometry">
            <mxPoint x="400" y="420" as="sourcePoint" />
            <mxPoint x="240" y="280" as="targetPoint" />
          </mxGeometry>
        </mxCell>
        <mxCell id="OavMHwxAjZZI_yzGjffu-15" value="NO" style="text;html=1;align=center;verticalAlign=middle;resizable=0;points=[];autosize=1;strokeColor=none;fillColor=none;" vertex="1" parent="1">
          <mxGeometry x="240" y="258" width="40" height="30" as="geometry" />
        </mxCell>
        <mxCell id="OavMHwxAjZZI_yzGjffu-18" style="edgeStyle=orthogonalEdgeStyle;rounded=0;orthogonalLoop=1;jettySize=auto;html=1;entryX=0.5;entryY=0;entryDx=0;entryDy=0;" edge="1" parent="1" source="OavMHwxAjZZI_yzGjffu-17" target="OavMHwxAjZZI_yzGjffu-10">
          <mxGeometry relative="1" as="geometry" />
        </mxCell>
        <mxCell id="OavMHwxAjZZI_yzGjffu-17" value="Hay mas estudiantes?" style="rhombus;whiteSpace=wrap;html=1;" vertex="1" parent="1">
          <mxGeometry x="372.75" y="460" width="105.5" height="100" as="geometry" />
        </mxCell>
        <mxCell id="OavMHwxAjZZI_yzGjffu-19" value="SI" style="text;html=1;align=center;verticalAlign=middle;resizable=0;points=[];autosize=1;strokeColor=none;fillColor=none;" vertex="1" parent="1">
          <mxGeometry x="585" y="488" width="30" height="30" as="geometry" />
        </mxCell>
        <mxCell id="OavMHwxAjZZI_yzGjffu-33" value="" style="edgeStyle=orthogonalEdgeStyle;rounded=0;orthogonalLoop=1;jettySize=auto;html=1;" edge="1" parent="1" source="OavMHwxAjZZI_yzGjffu-20" target="OavMHwxAjZZI_yzGjffu-32">
          <mxGeometry relative="1" as="geometry" />
        </mxCell>
        <mxCell id="OavMHwxAjZZI_yzGjffu-20" value="Cerrar el programa" style="rounded=0;whiteSpace=wrap;html=1;" vertex="1" parent="1">
          <mxGeometry x="365.5" y="630" width="120" height="60" as="geometry" />
        </mxCell>
        <mxCell id="OavMHwxAjZZI_yzGjffu-21" value="" style="endArrow=classic;html=1;rounded=0;entryX=1;entryY=0.5;entryDx=0;entryDy=0;" edge="1" parent="1" target="OavMHwxAjZZI_yzGjffu-2">
          <mxGeometry width="50" height="50" relative="1" as="geometry">
            <mxPoint x="720" y="150" as="sourcePoint" />
            <mxPoint x="450" y="350" as="targetPoint" />
          </mxGeometry>
        </mxCell>
        <mxCell id="OavMHwxAjZZI_yzGjffu-22" value="" style="endArrow=none;html=1;rounded=0;" edge="1" parent="1">
          <mxGeometry width="50" height="50" relative="1" as="geometry">
            <mxPoint x="720" y="590" as="sourcePoint" />
            <mxPoint x="720" y="150" as="targetPoint" />
          </mxGeometry>
        </mxCell>
        <mxCell id="OavMHwxAjZZI_yzGjffu-26" value="" style="endArrow=none;html=1;rounded=0;exitX=1;exitY=0.5;exitDx=0;exitDy=0;" edge="1" parent="1" source="OavMHwxAjZZI_yzGjffu-10">
          <mxGeometry width="50" height="50" relative="1" as="geometry">
            <mxPoint x="400" y="400" as="sourcePoint" />
            <mxPoint x="720" y="590" as="targetPoint" />
          </mxGeometry>
        </mxCell>
        <mxCell id="OavMHwxAjZZI_yzGjffu-28" value="" style="endArrow=classic;html=1;rounded=0;entryX=0.5;entryY=0;entryDx=0;entryDy=0;" edge="1" parent="1" target="OavMHwxAjZZI_yzGjffu-20">
          <mxGeometry width="50" height="50" relative="1" as="geometry">
            <mxPoint x="280" y="560" as="sourcePoint" />
            <mxPoint x="450" y="450" as="targetPoint" />
          </mxGeometry>
        </mxCell>
        <mxCell id="OavMHwxAjZZI_yzGjffu-29" value="" style="endArrow=none;html=1;rounded=0;" edge="1" parent="1">
          <mxGeometry width="50" height="50" relative="1" as="geometry">
            <mxPoint x="280" y="560" as="sourcePoint" />
            <mxPoint x="280" y="510" as="targetPoint" />
          </mxGeometry>
        </mxCell>
        <mxCell id="OavMHwxAjZZI_yzGjffu-30" value="" style="endArrow=none;html=1;rounded=0;entryX=0;entryY=0.5;entryDx=0;entryDy=0;" edge="1" parent="1" target="OavMHwxAjZZI_yzGjffu-17">
          <mxGeometry width="50" height="50" relative="1" as="geometry">
            <mxPoint x="280" y="510" as="sourcePoint" />
            <mxPoint x="450" y="450" as="targetPoint" />
          </mxGeometry>
        </mxCell>
        <mxCell id="OavMHwxAjZZI_yzGjffu-31" value="NO" style="text;html=1;align=center;verticalAlign=middle;resizable=0;points=[];autosize=1;strokeColor=none;fillColor=none;" vertex="1" parent="1">
          <mxGeometry x="270" y="488" width="40" height="30" as="geometry" />
        </mxCell>
        <mxCell id="OavMHwxAjZZI_yzGjffu-32" value="FIN" style="ellipse;whiteSpace=wrap;html=1;" vertex="1" parent="1">
          <mxGeometry x="365" y="740" width="120" height="80" as="geometry" />
        </mxCell>
      </root>
    </mxGraphModel>
  </diagram>
</mxfile>
